<svg width="0" height="0" class="hidden">
  <symbol version="1.1" xmlns="http://www.w3.org/2000/svg" xmlns:xlink="http://www.w3.org/1999/xlink" viewBox="0 0 24 24" id="Calling">
    <title>Iconly/Light/Calling</title>
    <g id="Iconly/Light/Calling" stroke="#000000" stroke-width="1.5" fill="none" fill-rule="evenodd" stroke-linecap="round" stroke-linejoin="round">
      <g id="Calling" transform="translate(2.000000, 2.500000)" stroke="#000000" stroke-width="1.5">
        <path d="M12.353,1.95399252e-14 C16.054,0.411 18.978,3.331 19.393,7.032" id="Stroke-1"></path>
        <path d="M12.353,3.543 C14.124,3.887 15.508,5.272 15.853,7.043" id="Stroke-3"></path>
        <path d="M9.03152183,9.97238745 C13.0205087,13.9603606 13.9254376,9.34671782 16.46525,11.8848116 C18.9138181,14.3327574 20.322201,14.8232052 17.2188207,17.9247236 C16.8302273,18.2370218 14.3612634,21.9942591 5.68446558,13.3196663 C-2.9934057,4.64400029 0.761566311,2.17244427 1.07394391,1.78394958 C4.18376493,-1.32615434 4.66682308,0.0893829491 7.11539117,2.53732879 C9.65413011,5.07649576 5.04253498,5.9844143 9.03152183,9.97238745 Z" id="Stroke-5"></path>
      </g>
    </g>
  </symbol>
  <symbol role="img" xmlns="http://www.w3.org/2000/svg" viewBox="0 0 24 24" id="linkedin">
    <title>LinkedIn</title>
    <path d="M20.447 20.452h-3.554v-5.569c0-1.328-.027-3.037-1.852-3.037-1.853 0-2.136 1.445-2.136 2.939v5.667H9.351V9h3.414v1.561h.046c.477-.9 1.637-1.85 3.37-1.85 3.601 0 4.267 2.37 4.267 5.455v6.286zM5.337 7.433c-1.144 0-2.063-.926-2.063-2.065 0-1.138.92-2.063 2.063-2.063 1.14 0 2.064.925 2.064 2.063 0 1.139-.925 2.065-2.064 2.065zm1.782 13.019H3.555V9h3.564v11.452zM22.225 0H1.771C.792 0 0 .774 0 1.729v20.542C0 23.227.792 24 1.771 24h20.451C23.2 24 24 23.227 24 22.271V1.729C24 .774 23.2 0 22.222 0h.003z"></path>
  </symbol>
  <symbol version="1.1" xmlns="http://www.w3.org/2000/svg" xmlns:xlink="http://www.w3.org/1999/xlink" viewBox="0 0 24 24" id="Location">
    <title>Iconly/Light/Location</title>
    <g id="Iconly/Light/Location" stroke="#000000" stroke-width="1.5" fill="none" fill-rule="evenodd" stroke-linecap="round" stroke-linejoin="round">
      <g id="Location" transform="translate(4.500000, 3.000000)" stroke="#000000" stroke-width="1.5">
        <path d="M10,7.50050782 C10,6.11923624 8.88076376,5 7.50050782,5 C6.11923624,5 5,6.11923624 5,7.50050782 C5,8.88076376 6.11923624,10 7.50050782,10 C8.88076376,10 10,8.88076376 10,7.50050782 Z" id="Stroke-1"></path>
        <path d="M7.49951162,18 C6.30103536,18 0,12.8983747 0,7.5632901 C0,3.38663602 3.357101,0 7.49951162,0 C11.6419223,0 15,3.38663602 15,7.5632901 C15,12.8983747 8.69798789,18 7.49951162,18 Z" id="Stroke-3"></path>
      </g>
    </g>
  </symbol>
  <symbol version="1.1" xmlns="http://www.w3.org/2000/svg" xmlns:xlink="http://www.w3.org/1999/xlink" viewBox="0 0 24 24" id="Message">
    <title>Iconly/Light/Message</title>
    <g id="Iconly/Light/Message" stroke="#000000" stroke-width="1.5" fill="none" fill-rule="evenodd" stroke-linecap="round" stroke-linejoin="round">
      <g id="Message" transform="translate(2.000000, 3.000000)" stroke="#000000" stroke-width="1.5">
        <path d="M15.9026143,5.8511436 L11.4593272,9.46418164 C10.6198313,10.1301843 9.4387043,10.1301843 8.59920842,9.46418164 L4.11842516,5.8511436" id="Stroke-1"></path>
        <path d="M14.9088637,17.9999789 C17.9502135,18.0083748 20,15.5095497 20,12.4383622 L20,5.57001263 C20,2.49882508 17.9502135,5.32907052e-15 14.9088637,5.32907052e-15 L5.09113634,5.32907052e-15 C2.04978648,5.32907052e-15 1.77635684e-15,2.49882508 1.77635684e-15,5.57001263 L1.77635684e-15,12.4383622 C1.77635684e-15,15.5095497 2.04978648,18.0083748 5.09113634,17.9999789 L14.9088637,17.9999789 Z" id="Stroke-3"></path>
      </g>
    </g>
  </symbol>
  <symbol role="img" xmlns="http://www.w3.org/2000/svg" viewBox="0 0 24 24" id="telegram">
    <title>Telegram</title>
    <path d="M11.944 0A12 12 0 0 0 0 12a12 12 0 0 0 12 12 12 12 0 0 0 12-12A12 12 0 0 0 12 0a12 12 0 0 0-.056 0zm4.962 7.224c.1-.002.321.023.465.14a.506.506 0 0 1 .171.325c.016.093.036.306.02.472-.18 1.898-.962 6.502-1.36 8.627-.168.9-.499 1.201-.82 1.23-.696.065-1.225-.46-1.9-.902-1.056-.693-1.653-1.124-2.678-1.8-1.185-.78-.417-1.21.258-1.91.177-.184 3.247-2.977 3.307-3.23.007-.032.014-.15-.056-.212s-.174-.041-.249-.024c-.106.024-1.793 1.14-5.061 3.345-.48.33-.913.49-1.302.48-.428-.008-1.252-.241-1.865-.44-.752-.245-1.349-.374-1.297-.789.027-.216.325-.437.893-.663 3.498-1.524 5.83-2.529 6.998-3.014 3.332-1.386 4.025-1.627 4.476-1.635z"></path>
  </symbol>
  <symbol role="img" xmlns="http://www.w3.org/2000/svg" viewBox="0 0 24 24" id="twitter">
    <title>Twitter</title>
    <path d="M23.953 4.57a10 10 0 01-2.825.775 4.958 4.958 0 002.163-2.723c-.951.555-2.005.959-3.127 1.184a4.92 4.92 0 00-8.384 4.482C7.69 8.095 4.067 6.13 1.64 3.162a4.822 4.822 0 00-.666 2.475c0 1.71.87 3.213 2.188 4.096a4.904 4.904 0 01-2.228-.616v.06a4.923 4.923 0 003.946 4.827 4.996 4.996 0 01-2.212.085 4.936 4.936 0 004.604 3.417 9.867 9.867 0 01-6.102 2.105c-.39 0-.779-.023-1.17-.067a13.995 13.995 0 007.557 2.209c9.053 0 13.998-7.496 13.998-13.985 0-.21 0-.42-.015-.63A9.935 9.935 0 0024 4.59z"></path>
  </symbol>
</svg>